<svg width="44" height="44" viewBox="0 0 44 44" fill="none" xmlns="http://www.w3.org/2000/svg">
<rect width="44" height="44" rx="22" fill="#FFD012"/>
<path d="M33.0529 26.3877H17.1216L17.9215 24.8023L31.2124 24.7789C31.6618 24.7789 32.047 24.4665 32.1273 24.0344L33.9679 14.0095C34.0161 13.7466 33.9438 13.4758 33.7673 13.2702C33.68 13.169 33.5711 13.0874 33.4483 13.0312C33.3254 12.9751 33.1914 12.9456 33.0556 12.9448L16.1478 12.8901L16.0033 12.2289C15.9124 11.8072 15.5218 11.5 15.0777 11.5H10.9444C10.6939 11.5 10.4537 11.5968 10.2766 11.7691C10.0995 11.9415 10 12.1752 10 12.4189C10 12.6626 10.0995 12.8964 10.2766 13.0687C10.4537 13.241 10.6939 13.3379 10.9444 13.3379H14.3126L14.9439 16.2586L16.4983 23.5814L14.4972 26.7599C14.3932 26.8964 14.3306 27.0585 14.3165 27.2278C14.3023 27.3971 14.3371 27.5669 14.4169 27.7179C14.5774 28.0277 14.9011 28.2229 15.2596 28.2229H16.9397C16.5815 28.6858 16.3881 29.2497 16.3886 29.8291C16.3886 31.3025 17.6192 32.5 19.1334 32.5C20.6476 32.5 21.8783 31.3025 21.8783 29.8291C21.8783 29.2486 21.6803 28.6837 21.3272 28.2229H25.6371C25.2789 28.6858 25.0854 29.2497 25.0859 29.8291C25.0859 31.3025 26.3166 32.5 27.8308 32.5C29.345 32.5 30.5756 31.3025 30.5756 29.8291C30.5756 29.2486 30.3777 28.6837 30.0245 28.2229H33.0556C33.5746 28.2229 34 27.8116 34 27.304C33.9984 27.0606 33.898 26.8276 33.7206 26.6559C33.5432 26.4842 33.3032 26.3878 33.0529 26.3877ZM16.5411 14.7019L31.9454 14.7514L30.4365 22.9723L18.3362 22.9931L16.5411 14.7019ZM19.1334 30.6517C18.6679 30.6517 18.288 30.2821 18.288 29.8291C18.288 29.3762 18.6679 29.0065 19.1334 29.0065C19.5989 29.0065 19.9788 29.3762 19.9788 29.8291C19.9788 30.0473 19.8898 30.2565 19.7312 30.4108C19.5727 30.5651 19.3576 30.6517 19.1334 30.6517ZM27.8308 30.6517C27.3653 30.6517 26.9854 30.2821 26.9854 29.8291C26.9854 29.3762 27.3653 29.0065 27.8308 29.0065C28.2963 29.0065 28.6762 29.3762 28.6762 29.8291C28.6762 30.0473 28.5871 30.2565 28.4286 30.4108C28.27 30.5651 28.055 30.6517 27.8308 30.6517Z" fill="#004832"/>
</svg>
