<svg width="21" height="22" viewBox="0 0 21 22" fill="none" xmlns="http://www.w3.org/2000/svg">
<path d="M20.125 4H16.625V1.8125C16.625 0.847266 15.8402 0.0625 14.875 0.0625H6.125C5.15977 0.0625 4.375 0.847266 4.375 1.8125V4H0.875C0.391016 4 0 4.39102 0 4.875V5.75C0 5.87031 0.0984375 5.96875 0.21875 5.96875H1.87031L2.5457 20.2695C2.58945 21.202 3.36055 21.9375 4.29297 21.9375H16.707C17.6422 21.9375 18.4105 21.2047 18.4543 20.2695L19.1297 5.96875H20.7812C20.9016 5.96875 21 5.87031 21 5.75V4.875C21 4.39102 20.609 4 20.125 4ZM14.6562 4H6.34375V2.03125H14.6562V4Z" fill="#252525"/>
</svg>
