<svg width="295" height="58" viewBox="0 0 295 58" fill="none" xmlns="http://www.w3.org/2000/svg">
<g clip-path="url(#clip0_2_5)">
<path fill-rule="evenodd" clip-rule="evenodd" d="M4.19775 17.2192C11.8025 21.6176 19.4072 26.0215 27.0064 30.42L43.0175 21.1506C44.8482 20.0918 47.2315 20.7325 48.2877 22.5679C49.3439 24.4033 48.7048 26.7926 46.874 27.8515C40.2497 31.6852 33.6253 35.519 27.0064 39.3527L4.19775 26.1464V17.2192ZM4.19775 39.9391V31.0119C11.8025 35.4104 19.4072 39.8143 27.0064 44.2181C32.2496 41.1827 37.4927 38.1472 42.7358 35.1117C44.5666 34.0528 46.9444 34.6936 48.0006 36.529C49.0568 38.3644 48.4177 40.7537 46.5869 41.8126C40.0601 45.592 33.5279 49.3714 27.001 53.1508C19.3963 48.7524 11.7916 44.3485 4.19234 39.95L4.19775 39.9391ZM27.0119 20.6999C20.1059 16.7033 13.2053 12.7067 6.29934 8.71005L21.3462 0C28.2522 3.99663 35.1528 7.99326 42.0588 11.9899C37.0431 14.895 32.0275 17.7948 27.0119 20.6999ZM51.6459 34.4166C50.9472 33.2057 49.9776 32.2445 48.8618 31.5658L48.981 31.4952C52.8158 29.2742 54.1429 24.311 51.9275 20.461C49.7122 16.6164 44.7616 15.286 40.9213 17.507L27.0064 25.56L2.10158 11.1428L0 12.3537V42.3664L27.0119 58L48.6993 45.4454C52.5342 43.2244 53.8612 38.2612 51.6459 34.4112V34.4166Z" fill="#FFD012"/>
<path fill-rule="evenodd" clip-rule="evenodd" d="M46.7223 23.2087L27.0281 34.6067L5.64393 22.2258V22.8068L27.0281 35.1823C33.6958 31.316 40.3688 27.4497 47.0419 23.5942L46.9661 23.4585C46.9444 23.415 46.9173 23.377 46.8902 23.3336C46.8632 23.2956 46.8361 23.2521 46.809 23.2141L46.7711 23.1652L46.7169 23.1978L46.7223 23.2087ZM44.4095 22.2367L27.0281 32.2988L5.64393 19.918V20.499L27.0281 32.8744C33.1324 29.3339 39.2476 25.7989 45.3574 22.2638L45.1678 22.2312C45.0486 22.2095 44.9241 22.2041 44.7995 22.1987C44.6803 22.1987 44.5557 22.1987 44.4366 22.2204H44.4203L44.4095 22.2312V22.2367ZM47.0961 39.0703L27.0064 50.6964L5.62769 38.3155V38.8965L27.0118 51.272C33.6578 47.4165 40.3038 43.5231 46.9769 39.7165L46.9877 39.7002C47.0365 39.6133 47.0744 39.521 47.1123 39.4287C47.1502 39.3364 47.1773 39.2386 47.2044 39.1409L47.2477 38.9834L47.1069 39.0649L47.0961 39.0703ZM46.7007 36.9905L27.0064 48.3885L5.62769 36.0077V36.5887L27.0118 48.9641C33.6795 45.0978 40.3526 41.2315 47.0256 37.3761L46.9498 37.2403C46.9281 37.1969 46.9011 37.1589 46.874 37.1154C46.8469 37.0774 46.8198 37.034 46.7927 36.996L46.7548 36.9471L46.7007 36.9797V36.9905ZM44.3878 36.0185L27.0064 46.0807L5.62769 33.6944V34.2754L27.0118 46.6509C33.1162 43.1104 39.2314 39.5753 45.3411 36.0402L45.1516 36.0077C45.0324 35.9859 44.9078 35.9805 44.7832 35.9751C44.6641 35.9751 44.5395 35.9751 44.4203 35.9968H44.4041L44.3932 36.0077L44.3878 36.0185ZM27.0281 36.9199L5.64393 24.5391V25.1201L27.0281 37.4955C33.6741 33.6401 40.3201 29.7466 46.9931 25.9401L47.004 25.9238C47.0527 25.8369 47.0906 25.7446 47.1286 25.6523C47.1665 25.56 47.1936 25.4622 47.2206 25.3645L47.264 25.207L27.0335 36.9145L27.0281 36.9199Z" fill="#FFD012"/>
</g>
<path d="M84.822 41.5V17.7H90.33V37.012H102.264V41.5H84.822ZM104.968 41.5V23.208H110.272V41.5H104.968ZM107.62 20.658C106.645 20.658 105.852 20.3747 105.24 19.808C104.628 19.2413 104.322 18.5387 104.322 17.7C104.322 16.8613 104.628 16.1587 105.24 15.592C105.852 15.0253 106.645 14.742 107.62 14.742C108.594 14.742 109.388 15.014 110 15.558C110.612 16.0793 110.918 16.7593 110.918 17.598C110.918 18.482 110.612 19.2187 110 19.808C109.41 20.3747 108.617 20.658 107.62 20.658ZM120.158 41.5L112.474 23.208H117.948L124.34 38.95H121.62L128.25 23.208H133.35L125.632 41.5H120.158ZM135.514 41.5V23.208H140.58V28.376L139.866 26.88C140.41 25.588 141.283 24.6133 142.484 23.956C143.686 23.276 145.148 22.936 146.87 22.936V27.832C146.644 27.8093 146.44 27.798 146.258 27.798C146.077 27.7753 145.884 27.764 145.68 27.764C144.23 27.764 143.051 28.1833 142.144 29.022C141.26 29.838 140.818 31.1187 140.818 32.864V41.5H135.514ZM158.595 41.772C156.646 41.772 154.912 41.364 153.393 40.548C151.897 39.732 150.707 38.6213 149.823 37.216C148.962 35.788 148.531 34.1673 148.531 32.354C148.531 30.518 148.962 28.8973 149.823 27.492C150.707 26.064 151.897 24.9533 153.393 24.16C154.912 23.344 156.646 22.936 158.595 22.936C160.522 22.936 162.245 23.344 163.763 24.16C165.282 24.9533 166.472 26.0527 167.333 27.458C168.195 28.8633 168.625 30.4953 168.625 32.354C168.625 34.1673 168.195 35.788 167.333 37.216C166.472 38.6213 165.282 39.732 163.763 40.548C162.245 41.364 160.522 41.772 158.595 41.772ZM158.595 37.42C159.479 37.42 160.273 37.216 160.975 36.808C161.678 36.4 162.233 35.822 162.641 35.074C163.049 34.3033 163.253 33.3967 163.253 32.354C163.253 31.2887 163.049 30.382 162.641 29.634C162.233 28.886 161.678 28.308 160.975 27.9C160.273 27.492 159.479 27.288 158.595 27.288C157.711 27.288 156.918 27.492 156.215 27.9C155.513 28.308 154.946 28.886 154.515 29.634C154.107 30.382 153.903 31.2887 153.903 32.354C153.903 33.3967 154.107 34.3033 154.515 35.074C154.946 35.822 155.513 36.4 156.215 36.808C156.918 37.216 157.711 37.42 158.595 37.42ZM172.545 41.5V17.7H177.101L187.233 34.496H184.819L194.781 17.7H199.303L199.371 41.5H194.203L194.169 25.622H195.121L187.165 38.984H184.683L176.557 25.622H177.713V41.5H172.545ZM212.361 41.772C210.843 41.772 209.483 41.4773 208.281 40.888C207.103 40.2987 206.185 39.4033 205.527 38.202C204.87 36.978 204.541 35.4253 204.541 33.544V23.208H209.845V32.762C209.845 34.2807 210.163 35.4027 210.797 36.128C211.455 36.8307 212.373 37.182 213.551 37.182C214.367 37.182 215.093 37.012 215.727 36.672C216.362 36.3093 216.861 35.7653 217.223 35.04C217.586 34.292 217.767 33.3627 217.767 32.252V23.208H223.071V41.5H218.039V36.468L218.957 37.93C218.345 39.1993 217.439 40.1627 216.237 40.82C215.059 41.4547 213.767 41.772 212.361 41.772ZM239.103 22.936C240.554 22.936 241.846 23.2307 242.979 23.82C244.135 24.3867 245.042 25.2707 245.699 26.472C246.356 27.6507 246.685 29.1693 246.685 31.028V41.5H241.381V31.844C241.381 30.3707 241.052 29.2827 240.395 28.58C239.76 27.8773 238.854 27.526 237.675 27.526C236.836 27.526 236.077 27.7073 235.397 28.07C234.74 28.41 234.218 28.9427 233.833 29.668C233.47 30.3933 233.289 31.3227 233.289 32.456V41.5H227.985V23.208H233.051V28.274L232.099 26.744C232.756 25.52 233.697 24.5793 234.921 23.922C236.145 23.2647 237.539 22.936 239.103 22.936ZM259.48 41.772C257.757 41.772 256.204 41.3867 254.822 40.616C253.439 39.8227 252.34 38.7233 251.524 37.318C250.73 35.9127 250.334 34.258 250.334 32.354C250.334 30.4273 250.73 28.7613 251.524 27.356C252.34 25.9507 253.439 24.8627 254.822 24.092C256.204 23.3213 257.757 22.936 259.48 22.936C261.021 22.936 262.37 23.276 263.526 23.956C264.682 24.636 265.577 25.6673 266.212 27.05C266.846 28.4327 267.164 30.2007 267.164 32.354C267.164 34.4847 266.858 36.2527 266.246 37.658C265.634 39.0407 264.75 40.072 263.594 40.752C262.46 41.432 261.089 41.772 259.48 41.772ZM260.398 37.42C261.259 37.42 262.041 37.216 262.744 36.808C263.446 36.4 264.002 35.822 264.41 35.074C264.84 34.3033 265.056 33.3967 265.056 32.354C265.056 31.2887 264.84 30.382 264.41 29.634C264.002 28.886 263.446 28.308 262.744 27.9C262.041 27.492 261.259 27.288 260.398 27.288C259.514 27.288 258.72 27.492 258.018 27.9C257.315 28.308 256.748 28.886 256.318 29.634C255.91 30.382 255.706 31.2887 255.706 32.354C255.706 33.3967 255.91 34.3033 256.318 35.074C256.748 35.822 257.315 36.4 258.018 36.808C258.72 37.216 259.514 37.42 260.398 37.42ZM265.192 41.5V37.76L265.294 32.32L264.954 26.914V16.272H270.258V41.5H265.192ZM283.871 41.772C281.921 41.772 280.187 41.364 278.669 40.548C277.173 39.732 275.983 38.6213 275.099 37.216C274.237 35.788 273.807 34.1673 273.807 32.354C273.807 30.518 274.237 28.8973 275.099 27.492C275.983 26.064 277.173 24.9533 278.669 24.16C280.187 23.344 281.921 22.936 283.871 22.936C285.797 22.936 287.52 23.344 289.039 24.16C290.557 24.9533 291.747 26.0527 292.609 27.458C293.47 28.8633 293.901 30.4953 293.901 32.354C293.901 34.1673 293.47 35.788 292.609 37.216C291.747 38.6213 290.557 39.732 289.039 40.548C287.52 41.364 285.797 41.772 283.871 41.772ZM283.871 37.42C284.755 37.42 285.548 37.216 286.251 36.808C286.953 36.4 287.509 35.822 287.917 35.074C288.325 34.3033 288.529 33.3967 288.529 32.354C288.529 31.2887 288.325 30.382 287.917 29.634C287.509 28.886 286.953 28.308 286.251 27.9C285.548 27.492 284.755 27.288 283.871 27.288C282.987 27.288 282.193 27.492 281.491 27.9C280.788 28.308 280.221 28.886 279.791 29.634C279.383 30.382 279.179 31.2887 279.179 32.354C279.179 33.3967 279.383 34.3033 279.791 35.074C280.221 35.822 280.788 36.4 281.491 36.808C282.193 37.216 282.987 37.42 283.871 37.42Z" fill="white"/>
<defs>
<clipPath id="clip0_2_5">
<rect width="53" height="58" fill="white"/>
</clipPath>
</defs>
</svg>
